<mxfile host="app.diagrams.net" modified="2024-07-10T15:20:46.379Z" agent="Mozilla/5.0 (Windows NT 10.0; Win64; x64) AppleWebKit/537.36 (KHTML, like Gecko) Chrome/126.0.0.0 Safari/537.36" etag="9eWpfaZ9vusklcRtCW_i" version="24.6.4" type="device">
  <diagram id="R2lEEEUBdFMjLlhIrx00" name="Page-1">
    <mxGraphModel dx="3201" dy="2260" grid="1" gridSize="10" guides="1" tooltips="1" connect="1" arrows="1" fold="1" page="1" pageScale="1" pageWidth="850" pageHeight="1100" math="0" shadow="0" extFonts="Permanent Marker^https://fonts.googleapis.com/css?family=Permanent+Marker">
      <root>
        <mxCell id="0" />
        <mxCell id="1" parent="0" />
        <mxCell id="xF6KHp1AxPR2kExiSh4Z-90" style="edgeStyle=orthogonalEdgeStyle;rounded=0;orthogonalLoop=1;jettySize=auto;html=1;exitX=0.25;exitY=0;exitDx=0;exitDy=0;entryX=0.5;entryY=1;entryDx=0;entryDy=0;" edge="1" parent="1" source="xF6KHp1AxPR2kExiSh4Z-2" target="xF6KHp1AxPR2kExiSh4Z-4">
          <mxGeometry relative="1" as="geometry" />
        </mxCell>
        <mxCell id="xF6KHp1AxPR2kExiSh4Z-91" style="edgeStyle=orthogonalEdgeStyle;rounded=0;orthogonalLoop=1;jettySize=auto;html=1;exitX=0.75;exitY=0;exitDx=0;exitDy=0;entryX=0.5;entryY=1;entryDx=0;entryDy=0;" edge="1" parent="1" source="xF6KHp1AxPR2kExiSh4Z-2" target="xF6KHp1AxPR2kExiSh4Z-3">
          <mxGeometry relative="1" as="geometry" />
        </mxCell>
        <mxCell id="xF6KHp1AxPR2kExiSh4Z-94" style="edgeStyle=orthogonalEdgeStyle;rounded=0;orthogonalLoop=1;jettySize=auto;html=1;exitX=0.5;exitY=1;exitDx=0;exitDy=0;entryX=0.5;entryY=0;entryDx=0;entryDy=0;shape=link;" edge="1" parent="1" source="xF6KHp1AxPR2kExiSh4Z-2" target="xF6KHp1AxPR2kExiSh4Z-92">
          <mxGeometry relative="1" as="geometry" />
        </mxCell>
        <mxCell id="xF6KHp1AxPR2kExiSh4Z-96" value="1" style="edgeLabel;html=1;align=center;verticalAlign=middle;resizable=0;points=[];" vertex="1" connectable="0" parent="xF6KHp1AxPR2kExiSh4Z-94">
          <mxGeometry x="0.5889" y="-1" relative="1" as="geometry">
            <mxPoint as="offset" />
          </mxGeometry>
        </mxCell>
        <mxCell id="xF6KHp1AxPR2kExiSh4Z-2" value="Application" style="whiteSpace=wrap;html=1;align=center;" vertex="1" parent="1">
          <mxGeometry x="550" width="100" height="40" as="geometry" />
        </mxCell>
        <mxCell id="xF6KHp1AxPR2kExiSh4Z-3" value="division" style="ellipse;whiteSpace=wrap;html=1;align=center;" vertex="1" parent="1">
          <mxGeometry x="610" y="-95" width="70" height="30" as="geometry" />
        </mxCell>
        <mxCell id="xF6KHp1AxPR2kExiSh4Z-4" value="SNum" style="ellipse;whiteSpace=wrap;html=1;align=center;fontStyle=4;" vertex="1" parent="1">
          <mxGeometry x="530" y="-95" width="60" height="35" as="geometry" />
        </mxCell>
        <mxCell id="xF6KHp1AxPR2kExiSh4Z-18" style="edgeStyle=orthogonalEdgeStyle;rounded=0;orthogonalLoop=1;jettySize=auto;html=1;exitX=0;exitY=0.5;exitDx=0;exitDy=0;entryX=0.5;entryY=0;entryDx=0;entryDy=0;" edge="1" parent="1" source="xF6KHp1AxPR2kExiSh4Z-7" target="xF6KHp1AxPR2kExiSh4Z-9">
          <mxGeometry relative="1" as="geometry" />
        </mxCell>
        <mxCell id="xF6KHp1AxPR2kExiSh4Z-19" style="edgeStyle=orthogonalEdgeStyle;rounded=0;orthogonalLoop=1;jettySize=auto;html=1;exitX=0;exitY=1;exitDx=0;exitDy=0;entryX=0.5;entryY=0;entryDx=0;entryDy=0;" edge="1" parent="1" source="xF6KHp1AxPR2kExiSh4Z-7" target="xF6KHp1AxPR2kExiSh4Z-13">
          <mxGeometry relative="1" as="geometry">
            <Array as="points">
              <mxPoint x="330" y="300" />
            </Array>
          </mxGeometry>
        </mxCell>
        <mxCell id="xF6KHp1AxPR2kExiSh4Z-20" style="edgeStyle=orthogonalEdgeStyle;rounded=0;orthogonalLoop=1;jettySize=auto;html=1;exitX=0.25;exitY=1;exitDx=0;exitDy=0;entryX=0.5;entryY=0;entryDx=0;entryDy=0;" edge="1" parent="1" source="xF6KHp1AxPR2kExiSh4Z-7" target="xF6KHp1AxPR2kExiSh4Z-14">
          <mxGeometry relative="1" as="geometry" />
        </mxCell>
        <mxCell id="xF6KHp1AxPR2kExiSh4Z-22" style="edgeStyle=orthogonalEdgeStyle;rounded=0;orthogonalLoop=1;jettySize=auto;html=1;exitX=1;exitY=1;exitDx=0;exitDy=0;entryX=0.5;entryY=0;entryDx=0;entryDy=0;" edge="1" parent="1" source="xF6KHp1AxPR2kExiSh4Z-7" target="xF6KHp1AxPR2kExiSh4Z-16">
          <mxGeometry relative="1" as="geometry">
            <Array as="points">
              <mxPoint x="490" y="310" />
              <mxPoint x="540" y="310" />
            </Array>
          </mxGeometry>
        </mxCell>
        <mxCell id="xF6KHp1AxPR2kExiSh4Z-23" style="edgeStyle=orthogonalEdgeStyle;rounded=0;orthogonalLoop=1;jettySize=auto;html=1;exitX=1;exitY=0.5;exitDx=0;exitDy=0;entryX=0.5;entryY=0;entryDx=0;entryDy=0;" edge="1" parent="1" source="xF6KHp1AxPR2kExiSh4Z-7" target="xF6KHp1AxPR2kExiSh4Z-17">
          <mxGeometry relative="1" as="geometry" />
        </mxCell>
        <mxCell id="xF6KHp1AxPR2kExiSh4Z-25" style="edgeStyle=orthogonalEdgeStyle;rounded=0;orthogonalLoop=1;jettySize=auto;html=1;exitX=1;exitY=0.25;exitDx=0;exitDy=0;entryX=0.5;entryY=0;entryDx=0;entryDy=0;" edge="1" parent="1" source="xF6KHp1AxPR2kExiSh4Z-7" target="xF6KHp1AxPR2kExiSh4Z-24">
          <mxGeometry relative="1" as="geometry" />
        </mxCell>
        <mxCell id="xF6KHp1AxPR2kExiSh4Z-93" style="edgeStyle=orthogonalEdgeStyle;rounded=0;orthogonalLoop=1;jettySize=auto;html=1;exitX=1;exitY=0;exitDx=0;exitDy=0;entryX=0.5;entryY=1;entryDx=0;entryDy=0;shape=link;" edge="1" parent="1" source="xF6KHp1AxPR2kExiSh4Z-7" target="xF6KHp1AxPR2kExiSh4Z-92">
          <mxGeometry relative="1" as="geometry" />
        </mxCell>
        <mxCell id="xF6KHp1AxPR2kExiSh4Z-95" value="1" style="edgeLabel;html=1;align=center;verticalAlign=middle;resizable=0;points=[];" vertex="1" connectable="0" parent="xF6KHp1AxPR2kExiSh4Z-93">
          <mxGeometry x="0.8306" y="1" relative="1" as="geometry">
            <mxPoint as="offset" />
          </mxGeometry>
        </mxCell>
        <mxCell id="xF6KHp1AxPR2kExiSh4Z-99" style="edgeStyle=orthogonalEdgeStyle;rounded=0;orthogonalLoop=1;jettySize=auto;html=1;exitX=0.5;exitY=1;exitDx=0;exitDy=0;entryX=0.5;entryY=0;entryDx=0;entryDy=0;shape=link;" edge="1" parent="1" source="xF6KHp1AxPR2kExiSh4Z-7" target="xF6KHp1AxPR2kExiSh4Z-98">
          <mxGeometry relative="1" as="geometry">
            <Array as="points">
              <mxPoint x="440" y="390" />
              <mxPoint x="555" y="390" />
            </Array>
          </mxGeometry>
        </mxCell>
        <mxCell id="xF6KHp1AxPR2kExiSh4Z-101" value="1" style="edgeLabel;html=1;align=center;verticalAlign=middle;resizable=0;points=[];" vertex="1" connectable="0" parent="xF6KHp1AxPR2kExiSh4Z-99">
          <mxGeometry x="0.8732" y="-2" relative="1" as="geometry">
            <mxPoint x="7" as="offset" />
          </mxGeometry>
        </mxCell>
        <mxCell id="xF6KHp1AxPR2kExiSh4Z-103" style="edgeStyle=orthogonalEdgeStyle;rounded=0;orthogonalLoop=1;jettySize=auto;html=1;exitX=0.25;exitY=1;exitDx=0;exitDy=0;entryX=0.5;entryY=0;entryDx=0;entryDy=0;shape=link;" edge="1" parent="1" source="xF6KHp1AxPR2kExiSh4Z-7" target="xF6KHp1AxPR2kExiSh4Z-97">
          <mxGeometry relative="1" as="geometry">
            <Array as="points">
              <mxPoint x="415" y="390" />
              <mxPoint x="310" y="390" />
            </Array>
          </mxGeometry>
        </mxCell>
        <mxCell id="xF6KHp1AxPR2kExiSh4Z-114" style="edgeStyle=orthogonalEdgeStyle;rounded=0;orthogonalLoop=1;jettySize=auto;html=1;exitX=0.75;exitY=0;exitDx=0;exitDy=0;entryX=1;entryY=0.5;entryDx=0;entryDy=0;" edge="1" parent="1" source="xF6KHp1AxPR2kExiSh4Z-7" target="xF6KHp1AxPR2kExiSh4Z-113">
          <mxGeometry relative="1" as="geometry">
            <Array as="points">
              <mxPoint x="465" y="230" />
              <mxPoint x="480" y="230" />
            </Array>
          </mxGeometry>
        </mxCell>
        <mxCell id="xF6KHp1AxPR2kExiSh4Z-115" style="edgeStyle=orthogonalEdgeStyle;rounded=0;orthogonalLoop=1;jettySize=auto;html=1;exitX=0.25;exitY=0;exitDx=0;exitDy=0;entryX=0;entryY=0.5;entryDx=0;entryDy=0;" edge="1" parent="1" source="xF6KHp1AxPR2kExiSh4Z-7" target="xF6KHp1AxPR2kExiSh4Z-113">
          <mxGeometry relative="1" as="geometry">
            <Array as="points">
              <mxPoint x="415" y="230" />
              <mxPoint x="360" y="230" />
            </Array>
          </mxGeometry>
        </mxCell>
        <mxCell id="xF6KHp1AxPR2kExiSh4Z-121" style="edgeStyle=orthogonalEdgeStyle;rounded=0;orthogonalLoop=1;jettySize=auto;html=1;exitX=0;exitY=0;exitDx=0;exitDy=0;entryX=0.5;entryY=1;entryDx=0;entryDy=0;shape=link;" edge="1" parent="1" source="xF6KHp1AxPR2kExiSh4Z-7" target="xF6KHp1AxPR2kExiSh4Z-120">
          <mxGeometry relative="1" as="geometry">
            <Array as="points">
              <mxPoint x="245" y="260" />
            </Array>
          </mxGeometry>
        </mxCell>
        <mxCell id="xF6KHp1AxPR2kExiSh4Z-7" value="Student&amp;nbsp;" style="whiteSpace=wrap;html=1;align=center;" vertex="1" parent="1">
          <mxGeometry x="390" y="260" width="100" height="40" as="geometry" />
        </mxCell>
        <mxCell id="xF6KHp1AxPR2kExiSh4Z-9" value="SNum" style="ellipse;whiteSpace=wrap;html=1;align=center;fontStyle=4;" vertex="1" parent="1">
          <mxGeometry x="190" y="340" width="60" height="35" as="geometry" />
        </mxCell>
        <mxCell id="xF6KHp1AxPR2kExiSh4Z-13" value="FName" style="ellipse;whiteSpace=wrap;html=1;align=center;" vertex="1" parent="1">
          <mxGeometry x="260" y="340" width="60" height="35" as="geometry" />
        </mxCell>
        <mxCell id="xF6KHp1AxPR2kExiSh4Z-14" value="age" style="ellipse;whiteSpace=wrap;html=1;align=center;" vertex="1" parent="1">
          <mxGeometry x="330" y="340" width="60" height="35" as="geometry" />
        </mxCell>
        <mxCell id="xF6KHp1AxPR2kExiSh4Z-15" value="Gender" style="ellipse;whiteSpace=wrap;html=1;align=center;" vertex="1" parent="1">
          <mxGeometry x="460" y="330" width="60" height="35" as="geometry" />
        </mxCell>
        <mxCell id="xF6KHp1AxPR2kExiSh4Z-16" value="DOB" style="ellipse;whiteSpace=wrap;html=1;align=center;" vertex="1" parent="1">
          <mxGeometry x="530" y="330" width="60" height="35" as="geometry" />
        </mxCell>
        <mxCell id="xF6KHp1AxPR2kExiSh4Z-17" value="ComCertificate" style="ellipse;whiteSpace=wrap;html=1;align=center;" vertex="1" parent="1">
          <mxGeometry x="600" y="330" width="90" height="35" as="geometry" />
        </mxCell>
        <mxCell id="xF6KHp1AxPR2kExiSh4Z-21" style="edgeStyle=orthogonalEdgeStyle;rounded=0;orthogonalLoop=1;jettySize=auto;html=1;exitX=0.5;exitY=1;exitDx=0;exitDy=0;entryX=0.4;entryY=-0.103;entryDx=0;entryDy=0;entryPerimeter=0;" edge="1" parent="1" source="xF6KHp1AxPR2kExiSh4Z-7" target="xF6KHp1AxPR2kExiSh4Z-15">
          <mxGeometry relative="1" as="geometry" />
        </mxCell>
        <mxCell id="xF6KHp1AxPR2kExiSh4Z-24" value="Email" style="ellipse;whiteSpace=wrap;html=1;align=center;" vertex="1" parent="1">
          <mxGeometry x="700" y="330" width="60" height="35" as="geometry" />
        </mxCell>
        <mxCell id="xF6KHp1AxPR2kExiSh4Z-28" value="Name" style="ellipse;whiteSpace=wrap;html=1;align=center;" vertex="1" parent="1">
          <mxGeometry x="250" y="620" width="70" height="30" as="geometry" />
        </mxCell>
        <mxCell id="xF6KHp1AxPR2kExiSh4Z-29" value="ID" style="ellipse;whiteSpace=wrap;html=1;align=center;fontStyle=4;" vertex="1" parent="1">
          <mxGeometry x="180" y="615" width="60" height="35" as="geometry" />
        </mxCell>
        <mxCell id="xF6KHp1AxPR2kExiSh4Z-35" style="edgeStyle=orthogonalEdgeStyle;rounded=0;orthogonalLoop=1;jettySize=auto;html=1;exitX=0;exitY=1;exitDx=0;exitDy=0;entryX=0.5;entryY=0;entryDx=0;entryDy=0;" edge="1" parent="1" source="xF6KHp1AxPR2kExiSh4Z-31" target="xF6KHp1AxPR2kExiSh4Z-29">
          <mxGeometry relative="1" as="geometry" />
        </mxCell>
        <mxCell id="xF6KHp1AxPR2kExiSh4Z-36" style="edgeStyle=orthogonalEdgeStyle;rounded=0;orthogonalLoop=1;jettySize=auto;html=1;exitX=0.5;exitY=1;exitDx=0;exitDy=0;entryX=0.5;entryY=0;entryDx=0;entryDy=0;" edge="1" parent="1" source="xF6KHp1AxPR2kExiSh4Z-31" target="xF6KHp1AxPR2kExiSh4Z-28">
          <mxGeometry relative="1" as="geometry" />
        </mxCell>
        <mxCell id="xF6KHp1AxPR2kExiSh4Z-37" style="edgeStyle=orthogonalEdgeStyle;rounded=0;orthogonalLoop=1;jettySize=auto;html=1;exitX=1;exitY=1;exitDx=0;exitDy=0;entryX=0.5;entryY=0;entryDx=0;entryDy=0;" edge="1" parent="1" source="xF6KHp1AxPR2kExiSh4Z-31" target="xF6KHp1AxPR2kExiSh4Z-34">
          <mxGeometry relative="1" as="geometry">
            <Array as="points">
              <mxPoint x="365" y="590" />
            </Array>
          </mxGeometry>
        </mxCell>
        <mxCell id="xF6KHp1AxPR2kExiSh4Z-104" style="edgeStyle=orthogonalEdgeStyle;rounded=0;orthogonalLoop=1;jettySize=auto;html=1;exitX=0.75;exitY=0;exitDx=0;exitDy=0;entryX=0.5;entryY=1;entryDx=0;entryDy=0;shape=link;" edge="1" parent="1" source="xF6KHp1AxPR2kExiSh4Z-31" target="xF6KHp1AxPR2kExiSh4Z-97">
          <mxGeometry relative="1" as="geometry" />
        </mxCell>
        <mxCell id="xF6KHp1AxPR2kExiSh4Z-31" value="Parent" style="shape=ext;margin=3;double=1;whiteSpace=wrap;html=1;align=center;" vertex="1" parent="1">
          <mxGeometry x="230" y="550" width="100" height="40" as="geometry" />
        </mxCell>
        <mxCell id="xF6KHp1AxPR2kExiSh4Z-34" value="Relationship" style="ellipse;whiteSpace=wrap;html=1;align=center;" vertex="1" parent="1">
          <mxGeometry x="330" y="620" width="70" height="30" as="geometry" />
        </mxCell>
        <mxCell id="xF6KHp1AxPR2kExiSh4Z-38" style="edgeStyle=orthogonalEdgeStyle;rounded=0;orthogonalLoop=1;jettySize=auto;html=1;exitX=0;exitY=0.5;exitDx=0;exitDy=0;entryX=0.5;entryY=0;entryDx=0;entryDy=0;" edge="1" parent="1" source="xF6KHp1AxPR2kExiSh4Z-44" target="xF6KHp1AxPR2kExiSh4Z-45">
          <mxGeometry relative="1" as="geometry" />
        </mxCell>
        <mxCell id="xF6KHp1AxPR2kExiSh4Z-39" style="edgeStyle=orthogonalEdgeStyle;rounded=0;orthogonalLoop=1;jettySize=auto;html=1;exitX=0;exitY=1;exitDx=0;exitDy=0;entryX=0.5;entryY=0;entryDx=0;entryDy=0;" edge="1" parent="1" source="xF6KHp1AxPR2kExiSh4Z-44" target="xF6KHp1AxPR2kExiSh4Z-46">
          <mxGeometry relative="1" as="geometry">
            <Array as="points">
              <mxPoint x="-280" y="300" />
            </Array>
          </mxGeometry>
        </mxCell>
        <mxCell id="xF6KHp1AxPR2kExiSh4Z-40" style="edgeStyle=orthogonalEdgeStyle;rounded=0;orthogonalLoop=1;jettySize=auto;html=1;exitX=0.25;exitY=1;exitDx=0;exitDy=0;entryX=0.5;entryY=0;entryDx=0;entryDy=0;" edge="1" parent="1" source="xF6KHp1AxPR2kExiSh4Z-44" target="xF6KHp1AxPR2kExiSh4Z-47">
          <mxGeometry relative="1" as="geometry" />
        </mxCell>
        <mxCell id="xF6KHp1AxPR2kExiSh4Z-41" style="edgeStyle=orthogonalEdgeStyle;rounded=0;orthogonalLoop=1;jettySize=auto;html=1;exitX=1;exitY=1;exitDx=0;exitDy=0;entryX=0.5;entryY=0;entryDx=0;entryDy=0;" edge="1" parent="1" source="xF6KHp1AxPR2kExiSh4Z-44" target="xF6KHp1AxPR2kExiSh4Z-49">
          <mxGeometry relative="1" as="geometry">
            <Array as="points">
              <mxPoint x="-120" y="310" />
              <mxPoint x="-70" y="310" />
            </Array>
          </mxGeometry>
        </mxCell>
        <mxCell id="xF6KHp1AxPR2kExiSh4Z-42" style="edgeStyle=orthogonalEdgeStyle;rounded=0;orthogonalLoop=1;jettySize=auto;html=1;exitX=1;exitY=0.5;exitDx=0;exitDy=0;entryX=0.5;entryY=0;entryDx=0;entryDy=0;" edge="1" parent="1" source="xF6KHp1AxPR2kExiSh4Z-44" target="xF6KHp1AxPR2kExiSh4Z-50">
          <mxGeometry relative="1" as="geometry" />
        </mxCell>
        <mxCell id="xF6KHp1AxPR2kExiSh4Z-108" style="edgeStyle=orthogonalEdgeStyle;rounded=0;orthogonalLoop=1;jettySize=auto;html=1;exitX=0.5;exitY=1;exitDx=0;exitDy=0;entryX=0;entryY=0.5;entryDx=0;entryDy=0;shape=link;" edge="1" parent="1" source="xF6KHp1AxPR2kExiSh4Z-44" target="xF6KHp1AxPR2kExiSh4Z-107">
          <mxGeometry relative="1" as="geometry">
            <Array as="points">
              <mxPoint x="-190" y="300" />
              <mxPoint x="-190" y="390" />
              <mxPoint x="-260" y="390" />
            </Array>
          </mxGeometry>
        </mxCell>
        <mxCell id="xF6KHp1AxPR2kExiSh4Z-111" value="1" style="edgeLabel;html=1;align=center;verticalAlign=middle;resizable=0;points=[];" vertex="1" connectable="0" parent="xF6KHp1AxPR2kExiSh4Z-108">
          <mxGeometry x="0.7963" y="3" relative="1" as="geometry">
            <mxPoint as="offset" />
          </mxGeometry>
        </mxCell>
        <mxCell id="xF6KHp1AxPR2kExiSh4Z-110" style="edgeStyle=orthogonalEdgeStyle;rounded=0;orthogonalLoop=1;jettySize=auto;html=1;exitX=0.5;exitY=1;exitDx=0;exitDy=0;entryX=1;entryY=0.5;entryDx=0;entryDy=0;shape=link;" edge="1" parent="1" source="xF6KHp1AxPR2kExiSh4Z-44" target="xF6KHp1AxPR2kExiSh4Z-107">
          <mxGeometry relative="1" as="geometry">
            <Array as="points">
              <mxPoint x="-170" y="390" />
              <mxPoint x="-120" y="390" />
              <mxPoint x="-120" y="468" />
            </Array>
          </mxGeometry>
        </mxCell>
        <mxCell id="xF6KHp1AxPR2kExiSh4Z-112" value="M" style="edgeLabel;html=1;align=center;verticalAlign=middle;resizable=0;points=[];" vertex="1" connectable="0" parent="xF6KHp1AxPR2kExiSh4Z-110">
          <mxGeometry x="0.6547" y="1" relative="1" as="geometry">
            <mxPoint as="offset" />
          </mxGeometry>
        </mxCell>
        <mxCell id="xF6KHp1AxPR2kExiSh4Z-126" style="edgeStyle=orthogonalEdgeStyle;rounded=0;orthogonalLoop=1;jettySize=auto;html=1;exitX=0.5;exitY=0;exitDx=0;exitDy=0;entryX=0.5;entryY=1;entryDx=0;entryDy=0;shape=link;" edge="1" parent="1" source="xF6KHp1AxPR2kExiSh4Z-44" target="xF6KHp1AxPR2kExiSh4Z-125">
          <mxGeometry relative="1" as="geometry" />
        </mxCell>
        <mxCell id="xF6KHp1AxPR2kExiSh4Z-44" value="Teacher" style="whiteSpace=wrap;html=1;align=center;" vertex="1" parent="1">
          <mxGeometry x="-220" y="260" width="100" height="40" as="geometry" />
        </mxCell>
        <mxCell id="xF6KHp1AxPR2kExiSh4Z-45" value="ID" style="ellipse;whiteSpace=wrap;html=1;align=center;fontStyle=4;" vertex="1" parent="1">
          <mxGeometry x="-420" y="340" width="60" height="35" as="geometry" />
        </mxCell>
        <mxCell id="xF6KHp1AxPR2kExiSh4Z-46" value="Name" style="ellipse;whiteSpace=wrap;html=1;align=center;" vertex="1" parent="1">
          <mxGeometry x="-350" y="340" width="60" height="35" as="geometry" />
        </mxCell>
        <mxCell id="xF6KHp1AxPR2kExiSh4Z-47" value="Subjects" style="ellipse;whiteSpace=wrap;html=1;align=center;" vertex="1" parent="1">
          <mxGeometry x="-280" y="340" width="60" height="35" as="geometry" />
        </mxCell>
        <mxCell id="xF6KHp1AxPR2kExiSh4Z-48" value="Pnumber" style="ellipse;whiteSpace=wrap;html=1;align=center;" vertex="1" parent="1">
          <mxGeometry x="-150" y="330" width="60" height="35" as="geometry" />
        </mxCell>
        <mxCell id="xF6KHp1AxPR2kExiSh4Z-49" value="Email" style="ellipse;whiteSpace=wrap;html=1;align=center;" vertex="1" parent="1">
          <mxGeometry x="-80" y="330" width="60" height="35" as="geometry" />
        </mxCell>
        <mxCell id="xF6KHp1AxPR2kExiSh4Z-50" value="Salary" style="ellipse;whiteSpace=wrap;html=1;align=center;" vertex="1" parent="1">
          <mxGeometry x="-10" y="330" width="90" height="35" as="geometry" />
        </mxCell>
        <mxCell id="xF6KHp1AxPR2kExiSh4Z-51" style="edgeStyle=orthogonalEdgeStyle;rounded=0;orthogonalLoop=1;jettySize=auto;html=1;exitX=0.5;exitY=1;exitDx=0;exitDy=0;entryX=0.4;entryY=-0.103;entryDx=0;entryDy=0;entryPerimeter=0;" edge="1" parent="1" source="xF6KHp1AxPR2kExiSh4Z-44" target="xF6KHp1AxPR2kExiSh4Z-48">
          <mxGeometry relative="1" as="geometry" />
        </mxCell>
        <mxCell id="xF6KHp1AxPR2kExiSh4Z-60" value="Length" style="ellipse;whiteSpace=wrap;html=1;align=center;" vertex="1" parent="1">
          <mxGeometry x="520" y="620" width="70" height="30" as="geometry" />
        </mxCell>
        <mxCell id="xF6KHp1AxPR2kExiSh4Z-62" style="edgeStyle=orthogonalEdgeStyle;rounded=0;orthogonalLoop=1;jettySize=auto;html=1;exitX=0;exitY=1;exitDx=0;exitDy=0;entryX=0.5;entryY=0;entryDx=0;entryDy=0;" edge="1" parent="1" source="xF6KHp1AxPR2kExiSh4Z-65" target="xF6KHp1AxPR2kExiSh4Z-67">
          <mxGeometry relative="1" as="geometry">
            <mxPoint x="480" y="615" as="targetPoint" />
          </mxGeometry>
        </mxCell>
        <mxCell id="xF6KHp1AxPR2kExiSh4Z-63" style="edgeStyle=orthogonalEdgeStyle;rounded=0;orthogonalLoop=1;jettySize=auto;html=1;exitX=0.5;exitY=1;exitDx=0;exitDy=0;entryX=0.5;entryY=0;entryDx=0;entryDy=0;" edge="1" parent="1" source="xF6KHp1AxPR2kExiSh4Z-65" target="xF6KHp1AxPR2kExiSh4Z-60">
          <mxGeometry relative="1" as="geometry" />
        </mxCell>
        <mxCell id="xF6KHp1AxPR2kExiSh4Z-64" style="edgeStyle=orthogonalEdgeStyle;rounded=0;orthogonalLoop=1;jettySize=auto;html=1;exitX=1;exitY=1;exitDx=0;exitDy=0;entryX=0.5;entryY=0;entryDx=0;entryDy=0;" edge="1" parent="1" source="xF6KHp1AxPR2kExiSh4Z-65" target="xF6KHp1AxPR2kExiSh4Z-66">
          <mxGeometry relative="1" as="geometry">
            <Array as="points">
              <mxPoint x="635" y="590" />
            </Array>
          </mxGeometry>
        </mxCell>
        <mxCell id="xF6KHp1AxPR2kExiSh4Z-100" style="edgeStyle=orthogonalEdgeStyle;rounded=0;orthogonalLoop=1;jettySize=auto;html=1;exitX=0.5;exitY=0;exitDx=0;exitDy=0;entryX=0.5;entryY=1;entryDx=0;entryDy=0;shape=link;" edge="1" parent="1" source="xF6KHp1AxPR2kExiSh4Z-65" target="xF6KHp1AxPR2kExiSh4Z-98">
          <mxGeometry relative="1" as="geometry" />
        </mxCell>
        <mxCell id="xF6KHp1AxPR2kExiSh4Z-102" value="1" style="edgeLabel;html=1;align=center;verticalAlign=middle;resizable=0;points=[];" vertex="1" connectable="0" parent="xF6KHp1AxPR2kExiSh4Z-100">
          <mxGeometry x="0.6686" y="-2" relative="1" as="geometry">
            <mxPoint x="13" y="1" as="offset" />
          </mxGeometry>
        </mxCell>
        <mxCell id="xF6KHp1AxPR2kExiSh4Z-65" value="Medical report" style="shape=ext;margin=3;double=1;whiteSpace=wrap;html=1;align=center;" vertex="1" parent="1">
          <mxGeometry x="500" y="550" width="100" height="40" as="geometry" />
        </mxCell>
        <mxCell id="xF6KHp1AxPR2kExiSh4Z-66" value="diseases" style="ellipse;whiteSpace=wrap;html=1;align=center;" vertex="1" parent="1">
          <mxGeometry x="600" y="620" width="70" height="30" as="geometry" />
        </mxCell>
        <mxCell id="xF6KHp1AxPR2kExiSh4Z-67" value="Weight" style="ellipse;whiteSpace=wrap;html=1;align=center;" vertex="1" parent="1">
          <mxGeometry x="450" y="620" width="70" height="30" as="geometry" />
        </mxCell>
        <mxCell id="xF6KHp1AxPR2kExiSh4Z-83" style="edgeStyle=orthogonalEdgeStyle;rounded=0;orthogonalLoop=1;jettySize=auto;html=1;exitX=0;exitY=0.25;exitDx=0;exitDy=0;entryX=1;entryY=0.5;entryDx=0;entryDy=0;" edge="1" parent="1" source="xF6KHp1AxPR2kExiSh4Z-73" target="xF6KHp1AxPR2kExiSh4Z-74">
          <mxGeometry relative="1" as="geometry" />
        </mxCell>
        <mxCell id="xF6KHp1AxPR2kExiSh4Z-84" style="edgeStyle=orthogonalEdgeStyle;rounded=0;orthogonalLoop=1;jettySize=auto;html=1;exitX=0;exitY=1;exitDx=0;exitDy=0;entryX=1;entryY=0.5;entryDx=0;entryDy=0;" edge="1" parent="1" source="xF6KHp1AxPR2kExiSh4Z-73" target="xF6KHp1AxPR2kExiSh4Z-75">
          <mxGeometry relative="1" as="geometry" />
        </mxCell>
        <mxCell id="xF6KHp1AxPR2kExiSh4Z-87" style="edgeStyle=orthogonalEdgeStyle;rounded=0;orthogonalLoop=1;jettySize=auto;html=1;exitX=1;exitY=0;exitDx=0;exitDy=0;entryX=0;entryY=0.5;entryDx=0;entryDy=0;" edge="1" parent="1" source="xF6KHp1AxPR2kExiSh4Z-73" target="xF6KHp1AxPR2kExiSh4Z-78">
          <mxGeometry relative="1" as="geometry" />
        </mxCell>
        <mxCell id="xF6KHp1AxPR2kExiSh4Z-88" style="edgeStyle=orthogonalEdgeStyle;rounded=0;orthogonalLoop=1;jettySize=auto;html=1;exitX=1;exitY=0.5;exitDx=0;exitDy=0;entryX=0;entryY=0.5;entryDx=0;entryDy=0;" edge="1" parent="1" source="xF6KHp1AxPR2kExiSh4Z-73" target="xF6KHp1AxPR2kExiSh4Z-77">
          <mxGeometry relative="1" as="geometry" />
        </mxCell>
        <mxCell id="xF6KHp1AxPR2kExiSh4Z-122" style="edgeStyle=orthogonalEdgeStyle;rounded=0;orthogonalLoop=1;jettySize=auto;html=1;exitX=1;exitY=1;exitDx=0;exitDy=0;shape=link;" edge="1" parent="1" source="xF6KHp1AxPR2kExiSh4Z-73" target="xF6KHp1AxPR2kExiSh4Z-120">
          <mxGeometry relative="1" as="geometry" />
        </mxCell>
        <mxCell id="xF6KHp1AxPR2kExiSh4Z-127" style="edgeStyle=orthogonalEdgeStyle;rounded=0;orthogonalLoop=1;jettySize=auto;html=1;exitX=0.5;exitY=1;exitDx=0;exitDy=0;entryX=0.5;entryY=0;entryDx=0;entryDy=0;shape=link;" edge="1" parent="1" source="xF6KHp1AxPR2kExiSh4Z-73" target="xF6KHp1AxPR2kExiSh4Z-125">
          <mxGeometry relative="1" as="geometry" />
        </mxCell>
        <mxCell id="xF6KHp1AxPR2kExiSh4Z-129" value="M" style="edgeLabel;html=1;align=center;verticalAlign=middle;resizable=0;points=[];" vertex="1" connectable="0" parent="xF6KHp1AxPR2kExiSh4Z-127">
          <mxGeometry x="0.694" y="8" relative="1" as="geometry">
            <mxPoint y="-1" as="offset" />
          </mxGeometry>
        </mxCell>
        <mxCell id="xF6KHp1AxPR2kExiSh4Z-73" value="Class" style="whiteSpace=wrap;html=1;align=center;" vertex="1" parent="1">
          <mxGeometry x="-190" y="30" width="100" height="40" as="geometry" />
        </mxCell>
        <mxCell id="xF6KHp1AxPR2kExiSh4Z-74" value="Name" style="ellipse;whiteSpace=wrap;html=1;align=center;fontStyle=4;" vertex="1" parent="1">
          <mxGeometry x="-340" y="-30" width="60" height="35" as="geometry" />
        </mxCell>
        <mxCell id="xF6KHp1AxPR2kExiSh4Z-86" style="edgeStyle=orthogonalEdgeStyle;rounded=0;orthogonalLoop=1;jettySize=auto;html=1;exitX=0;exitY=1;exitDx=0;exitDy=0;entryX=1;entryY=0.5;entryDx=0;entryDy=0;" edge="1" parent="1" source="xF6KHp1AxPR2kExiSh4Z-75" target="xF6KHp1AxPR2kExiSh4Z-81">
          <mxGeometry relative="1" as="geometry" />
        </mxCell>
        <mxCell id="xF6KHp1AxPR2kExiSh4Z-75" value="Location" style="ellipse;whiteSpace=wrap;html=1;align=center;" vertex="1" parent="1">
          <mxGeometry x="-340" y="32.5" width="60" height="35" as="geometry" />
        </mxCell>
        <mxCell id="xF6KHp1AxPR2kExiSh4Z-77" value="Capacity" style="ellipse;whiteSpace=wrap;html=1;align=center;" vertex="1" parent="1">
          <mxGeometry x="-60" y="30" width="60" height="35" as="geometry" />
        </mxCell>
        <mxCell id="xF6KHp1AxPR2kExiSh4Z-78" value="schedule" style="ellipse;whiteSpace=wrap;html=1;align=center;" vertex="1" parent="1">
          <mxGeometry x="-70" y="-35" width="60" height="35" as="geometry" />
        </mxCell>
        <mxCell id="xF6KHp1AxPR2kExiSh4Z-81" value="FloorNum" style="ellipse;whiteSpace=wrap;html=1;align=center;" vertex="1" parent="1">
          <mxGeometry x="-450" y="70" width="70" height="30" as="geometry" />
        </mxCell>
        <mxCell id="xF6KHp1AxPR2kExiSh4Z-82" value="BuildingNum" style="ellipse;whiteSpace=wrap;html=1;align=center;" vertex="1" parent="1">
          <mxGeometry x="-440" y="20" width="60" height="35" as="geometry" />
        </mxCell>
        <mxCell id="xF6KHp1AxPR2kExiSh4Z-85" style="edgeStyle=orthogonalEdgeStyle;rounded=0;orthogonalLoop=1;jettySize=auto;html=1;exitX=0;exitY=0.5;exitDx=0;exitDy=0;entryX=1.008;entryY=0.69;entryDx=0;entryDy=0;entryPerimeter=0;" edge="1" parent="1" source="xF6KHp1AxPR2kExiSh4Z-75" target="xF6KHp1AxPR2kExiSh4Z-82">
          <mxGeometry relative="1" as="geometry" />
        </mxCell>
        <mxCell id="xF6KHp1AxPR2kExiSh4Z-92" value="Has" style="shape=rhombus;perimeter=rhombusPerimeter;whiteSpace=wrap;html=1;align=center;" vertex="1" parent="1">
          <mxGeometry x="530" y="120" width="120" height="60" as="geometry" />
        </mxCell>
        <mxCell id="xF6KHp1AxPR2kExiSh4Z-97" value="Has" style="shape=rhombus;perimeter=rhombusPerimeter;whiteSpace=wrap;html=1;align=center;" vertex="1" parent="1">
          <mxGeometry x="250" y="440" width="120" height="60" as="geometry" />
        </mxCell>
        <mxCell id="xF6KHp1AxPR2kExiSh4Z-98" value="Fill" style="shape=rhombus;perimeter=rhombusPerimeter;whiteSpace=wrap;html=1;align=center;" vertex="1" parent="1">
          <mxGeometry x="495" y="440" width="120" height="60" as="geometry" />
        </mxCell>
        <mxCell id="xF6KHp1AxPR2kExiSh4Z-105" value="M" style="text;html=1;align=center;verticalAlign=middle;resizable=0;points=[];autosize=1;strokeColor=none;fillColor=none;" vertex="1" parent="1">
          <mxGeometry x="305" y="498" width="30" height="30" as="geometry" />
        </mxCell>
        <mxCell id="xF6KHp1AxPR2kExiSh4Z-106" value="M" style="text;html=1;align=center;verticalAlign=middle;resizable=0;points=[];autosize=1;strokeColor=none;fillColor=none;" vertex="1" parent="1">
          <mxGeometry x="305" y="418" width="30" height="30" as="geometry" />
        </mxCell>
        <mxCell id="xF6KHp1AxPR2kExiSh4Z-107" value="Head" style="shape=rhombus;perimeter=rhombusPerimeter;whiteSpace=wrap;html=1;align=center;" vertex="1" parent="1">
          <mxGeometry x="-260" y="438" width="120" height="60" as="geometry" />
        </mxCell>
        <mxCell id="xF6KHp1AxPR2kExiSh4Z-119" style="edgeStyle=orthogonalEdgeStyle;rounded=0;orthogonalLoop=1;jettySize=auto;html=1;exitX=0.5;exitY=0;exitDx=0;exitDy=0;entryX=0.5;entryY=1;entryDx=0;entryDy=0;" edge="1" parent="1" source="xF6KHp1AxPR2kExiSh4Z-113" target="xF6KHp1AxPR2kExiSh4Z-118">
          <mxGeometry relative="1" as="geometry" />
        </mxCell>
        <mxCell id="xF6KHp1AxPR2kExiSh4Z-113" value="&lt;span style=&quot;font-size:14.0pt;line-height:107%;&lt;br/&gt;font-family:&amp;quot;Arial&amp;quot;,sans-serif;mso-ascii-theme-font:minor-bidi;mso-fareast-font-family:&lt;br/&gt;Calibri;mso-fareast-theme-font:minor-latin;mso-hansi-theme-font:minor-bidi;&lt;br/&gt;mso-bidi-theme-font:minor-bidi;mso-ansi-language:EN-US;mso-fareast-language:&lt;br/&gt;EN-US;mso-bidi-language:AR-EG&quot;&gt;siblings&amp;nbsp;&lt;/span&gt;" style="shape=rhombus;perimeter=rhombusPerimeter;whiteSpace=wrap;html=1;align=center;" vertex="1" parent="1">
          <mxGeometry x="360" y="140" width="120" height="60" as="geometry" />
        </mxCell>
        <mxCell id="xF6KHp1AxPR2kExiSh4Z-116" value="1" style="text;html=1;align=center;verticalAlign=middle;resizable=0;points=[];autosize=1;strokeColor=none;fillColor=none;" vertex="1" parent="1">
          <mxGeometry x="455" y="178" width="30" height="30" as="geometry" />
        </mxCell>
        <mxCell id="xF6KHp1AxPR2kExiSh4Z-117" value="M" style="text;html=1;align=center;verticalAlign=middle;resizable=0;points=[];autosize=1;strokeColor=none;fillColor=none;" vertex="1" parent="1">
          <mxGeometry x="355" y="178" width="30" height="30" as="geometry" />
        </mxCell>
        <mxCell id="xF6KHp1AxPR2kExiSh4Z-118" value="Discount" style="ellipse;whiteSpace=wrap;html=1;align=center;" vertex="1" parent="1">
          <mxGeometry x="375" y="80" width="90" height="35" as="geometry" />
        </mxCell>
        <mxCell id="xF6KHp1AxPR2kExiSh4Z-120" value="Attend" style="shape=rhombus;perimeter=rhombusPerimeter;whiteSpace=wrap;html=1;align=center;" vertex="1" parent="1">
          <mxGeometry x="185" y="140" width="120" height="60" as="geometry" />
        </mxCell>
        <mxCell id="xF6KHp1AxPR2kExiSh4Z-123" value="M" style="text;html=1;align=center;verticalAlign=middle;resizable=0;points=[];autosize=1;strokeColor=none;fillColor=none;" vertex="1" parent="1">
          <mxGeometry x="215" y="198" width="30" height="30" as="geometry" />
        </mxCell>
        <mxCell id="xF6KHp1AxPR2kExiSh4Z-124" value="1" style="text;html=1;align=center;verticalAlign=middle;resizable=0;points=[];autosize=1;strokeColor=none;fillColor=none;" vertex="1" parent="1">
          <mxGeometry x="215" y="108" width="30" height="30" as="geometry" />
        </mxCell>
        <mxCell id="xF6KHp1AxPR2kExiSh4Z-125" value="Join" style="shape=rhombus;perimeter=rhombusPerimeter;whiteSpace=wrap;html=1;align=center;" vertex="1" parent="1">
          <mxGeometry x="-220" y="140" width="120" height="60" as="geometry" />
        </mxCell>
        <mxCell id="xF6KHp1AxPR2kExiSh4Z-128" value="M" style="text;html=1;align=center;verticalAlign=middle;resizable=0;points=[];autosize=1;strokeColor=none;fillColor=none;" vertex="1" parent="1">
          <mxGeometry x="-165" y="198" width="30" height="30" as="geometry" />
        </mxCell>
      </root>
    </mxGraphModel>
  </diagram>
</mxfile>
